<svg width="25" height="25" viewBox="0 0 25 25" fill="none" xmlns="http://www.w3.org/2000/svg">
<path d="M21.0476 18.9818H20.3333V9.70909C20.3333 5.86091 17.2292 2.68091 13.1905 2.15182V1.09091C13.1905 0.488182 12.6577 0 12 0C11.3423 0 10.8095 0.488182 10.8095 1.09091V2.15182C6.77083 2.68091 3.66667 5.86091 3.66667 9.70909V18.9818H2.95238C2.4256 18.9818 2 19.3718 2 19.8545V20.7273C2 20.8473 2.10714 20.9455 2.2381 20.9455H8.66667C8.66667 22.6309 10.1607 24 12 24C13.8393 24 15.3333 22.6309 15.3333 20.9455H21.7619C21.8929 20.9455 22 20.8473 22 20.7273V19.8545C22 19.3718 21.5744 18.9818 21.0476 18.9818ZM12 22.2545C11.2113 22.2545 10.5714 21.6682 10.5714 20.9455H13.4286C13.4286 21.6682 12.7887 22.2545 12 22.2545ZM5.80952 18.9818V9.70909C5.80952 8.19273 6.45238 6.76909 7.62202 5.69727C8.79167 4.62545 10.3452 4.03636 12 4.03636C13.6548 4.03636 15.2083 4.62545 16.378 5.69727C17.5476 6.76909 18.1905 8.19273 18.1905 9.70909V18.9818H5.80952Z" fill="black"/>
</svg>
