<svg width="786" height="332" viewBox="0 0 786 332" fill="none" xmlns="http://www.w3.org/2000/svg" xmlns:xlink="http://www.w3.org/1999/xlink">
<path d="M0,70C115.714,177.939 231.336,175.805 371.59,103.076C537.714,16.932 646.372,82.992 785,1L785,213L785,226L785,226C762.284,219.51 738.074,220.58 716.02,229.052L541.5,296.086C480.25,319.612 413.88,326.58 349.08,316.284L269.274,303.604C175.089,288.64 84.074,258.016 0,213L0,213L0,70Z" fill="#FFF4E6"/>
<path d="M520,64L524.009,74.704L534,79L524.009,83.296L520,94L515.991,83.296L506,79L515.991,74.704L520,64Z" fill="#4B3832"/>
</svg>
