<svg width="48" height="71" viewBox="0 0 48 71" fill="none" xmlns="http://www.w3.org/2000/svg">
<path d="M8.92106 0.00221868L5.33358 8.28899H0V15.7415H2.04081L4.13037 28.9982H0.866401L5.1829 53.3437L7.95051 53.3105L10.7336 71H37.0824L37.2664 69.8219L39.8634 53.3082L42.4958 53.3415L46.8012 28.9959H43.6835L45.7598 15.7393H48V8.28677H42.334L38.7333 0L8.92106 0.00221868ZM10.481 2.38286H37.1977L39.4689 7.65223H8.19204L10.481 2.38286ZM2.35768 10.6585H45.6224V13.3831H2.35768V10.6585ZM3.69606 31.3655H43.9871L40.5126 50.9409L23.8139 50.7656L7.17053 50.9409L3.69606 31.3655Z" fill="#4B3832"/>
</svg>
