<svg width="38" height="38" viewBox="0 0 38 38" fill="none" xmlns="http://www.w3.org/2000/svg" xmlns:xlink="http://www.w3.org/1999/xlink">
<path d="M35.667,18.646C35.114,18.646 34.584,18.865 34.194,19.256C33.803,19.647 33.583,20.177 33.583,20.729L33.583,32.333C33.583,32.665 33.452,32.983 33.217,33.217C32.983,33.452 32.665,33.583 32.333,33.583L5.667,33.583C5.335,33.583 5.017,33.452 4.783,33.217C4.548,32.983 4.417,32.665 4.417,32.333L4.417,5.667C4.417,5.335 4.548,5.017 4.783,4.783C5.017,4.548 5.335,4.417 5.667,4.417L25.604,4.417C26.157,4.417 26.687,4.197 27.077,3.806C27.468,3.416 27.687,2.886 27.687,2.333C27.687,1.781 27.468,1.251 27.077,0.86C26.687,0.469 26.157,0.25 25.604,0.25L5.667,0.25C4.232,0.255 2.857,0.828 1.843,1.843C0.828,2.857 0.255,4.232 0.25,5.667L0.25,32.333C0.255,33.768 0.828,35.143 1.843,36.157C2.857,37.172 4.232,37.745 5.667,37.75L32.333,37.75C33.768,37.745 35.143,37.172 36.157,36.157C37.172,35.143 37.745,33.768 37.75,32.333L37.75,20.729C37.75,20.177 37.531,19.647 37.14,19.256C36.749,18.865 36.219,18.646 35.667,18.646Z" fill="#06AC98"/>
<path d="M16.333,16.916C15.942,16.564 15.433,16.374 14.907,16.382C14.381,16.39 13.878,16.597 13.499,16.961C13.119,17.325 12.891,17.819 12.86,18.343C12.83,18.868 12.999,19.385 13.333,19.791L17.958,24.645C18.152,24.848 18.385,25.01 18.642,25.121C18.9,25.232 19.178,25.29 19.458,25.291C19.737,25.293 20.014,25.238 20.272,25.131C20.529,25.023 20.763,24.865 20.958,24.666L35.083,10.083C35.275,9.886 35.426,9.653 35.527,9.398C35.629,9.142 35.679,8.87 35.675,8.595C35.671,8.32 35.613,8.049 35.505,7.797C35.396,7.544 35.239,7.316 35.042,7.124C34.845,6.933 34.612,6.782 34.357,6.68C34.101,6.579 33.828,6.529 33.554,6.532C33.279,6.536 33.008,6.594 32.756,6.703C32.503,6.812 32.275,6.969 32.083,7.166L19.479,20.208L16.333,16.916Z" fill="#06AC98"/>
</svg>
