<svg width="38" height="38" viewBox="0 0 38 38" fill="none" xmlns="http://www.w3.org/2000/svg" xmlns:xlink="http://www.w3.org/1999/xlink">
<path d="M35.667,18.644C35.114,18.644 34.584,18.864 34.194,19.254C33.803,19.645 33.583,20.175 33.583,20.727L33.583,32.332C33.583,32.663 33.452,32.981 33.217,33.215C32.983,33.45 32.665,33.582 32.333,33.582L5.667,33.582C5.335,33.582 5.017,33.45 4.783,33.215C4.548,32.981 4.417,32.663 4.417,32.332L4.417,5.665C4.417,5.333 4.548,5.015 4.783,4.781C5.017,4.547 5.335,4.415 5.667,4.415L25.604,4.415C26.157,4.415 26.687,4.195 27.077,3.805C27.468,3.414 27.687,2.884 27.687,2.332C27.687,1.779 27.468,1.249 27.077,0.858C26.687,0.468 26.157,0.248 25.604,0.248L5.667,0.248C4.232,0.254 2.857,0.826 1.843,1.841C0.828,2.855 0.255,4.23 0.25,5.665L0.25,32.332C0.255,33.766 0.828,35.141 1.843,36.156C2.857,37.17 4.232,37.743 5.667,37.748L32.333,37.748C33.768,37.743 35.143,37.17 36.157,36.156C37.172,35.141 37.745,33.766 37.75,32.332L37.75,20.727C37.75,20.175 37.531,19.645 37.14,19.254C36.749,18.864 36.219,18.644 35.667,18.644Z" fill="#06AC98"/>
<path d="M16.333,16.914C15.942,16.563 15.433,16.372 14.907,16.38C14.381,16.389 13.878,16.595 13.499,16.959C13.119,17.323 12.891,17.817 12.86,18.342C12.83,18.867 12.999,19.384 13.333,19.789L17.958,24.643C18.152,24.847 18.385,25.008 18.642,25.119C18.9,25.23 19.178,25.288 19.458,25.289C19.737,25.291 20.014,25.236 20.272,25.129C20.529,25.022 20.763,24.864 20.958,24.664L35.083,10.081C35.275,9.884 35.426,9.651 35.527,9.396C35.629,9.141 35.679,8.868 35.675,8.593C35.671,8.318 35.613,8.047 35.505,7.795C35.396,7.543 35.239,7.314 35.042,7.123C34.845,6.931 34.612,6.78 34.357,6.679C34.101,6.577 33.828,6.527 33.554,6.531C33.279,6.535 33.008,6.593 32.756,6.701C32.503,6.81 32.275,6.967 32.083,7.164L19.479,20.206L16.333,16.914Z" fill="#06AC98"/>
</svg>
