<svg width="38" height="38" viewBox="0 0 38 38" fill="none" xmlns="http://www.w3.org/2000/svg" xmlns:xlink="http://www.w3.org/1999/xlink">
<path d="M35.667,18.396C35.114,18.396 34.584,18.615 34.194,19.006C33.803,19.397 33.583,19.927 33.583,20.479L33.583,32.083C33.583,32.415 33.452,32.733 33.217,32.967C32.983,33.202 32.665,33.333 32.333,33.333L5.667,33.333C5.335,33.333 5.017,33.202 4.783,32.967C4.548,32.733 4.417,32.415 4.417,32.083L4.417,5.417C4.417,5.085 4.548,4.767 4.783,4.533C5.017,4.298 5.335,4.167 5.667,4.167L25.604,4.167C26.157,4.167 26.687,3.947 27.077,3.556C27.468,3.166 27.687,2.636 27.687,2.083C27.687,1.531 27.468,1.001 27.077,0.61C26.687,0.219 26.157,0 25.604,0L5.667,0C4.232,0.005 2.857,0.578 1.843,1.593C0.828,2.607 0.255,3.982 0.25,5.417L0.25,32.083C0.255,33.518 0.828,34.893 1.843,35.907C2.857,36.922 4.232,37.495 5.667,37.5L32.333,37.5C33.768,37.495 35.143,36.922 36.157,35.907C37.172,34.893 37.745,33.518 37.75,32.083L37.75,20.479C37.75,19.927 37.531,19.397 37.14,19.006C36.749,18.615 36.219,18.396 35.667,18.396Z" fill="#06AC98"/>
<path d="M16.333,16.666C15.942,16.314 15.433,16.124 14.907,16.132C14.381,16.14 13.878,16.347 13.499,16.711C13.119,17.075 12.891,17.569 12.86,18.093C12.83,18.618 12.999,19.135 13.333,19.541L17.958,24.395C18.152,24.598 18.385,24.76 18.642,24.871C18.9,24.982 19.178,25.04 19.458,25.041C19.737,25.043 20.014,24.988 20.272,24.881C20.529,24.773 20.763,24.615 20.958,24.416L35.083,9.833C35.275,9.636 35.426,9.403 35.527,9.148C35.629,8.892 35.679,8.62 35.675,8.345C35.671,8.07 35.613,7.799 35.505,7.547C35.396,7.294 35.239,7.066 35.042,6.874C34.845,6.683 34.612,6.532 34.357,6.43C34.101,6.329 33.828,6.279 33.554,6.282C33.279,6.286 33.008,6.344 32.756,6.453C32.503,6.562 32.275,6.719 32.083,6.916L19.479,19.958L16.333,16.666Z" fill="#06AC98"/>
</svg>
