<svg width="60" height="54" viewBox="0 0 60 54" fill="none" xmlns="http://www.w3.org/2000/svg" xmlns:xlink="http://www.w3.org/1999/xlink">
<path d="M20.25,24.084C22.557,24.084 24.813,23.4 26.732,22.118C28.65,20.836 30.145,19.013 31.028,16.882C31.911,14.75 32.143,12.404 31.692,10.141C31.242,7.878 30.131,5.799 28.499,4.167C26.868,2.536 24.789,1.425 22.526,0.975C20.263,0.524 17.917,0.755 15.785,1.638C13.653,2.521 11.831,4.017 10.549,5.935C9.267,7.854 8.583,10.11 8.583,12.417C8.583,15.511 9.812,18.479 12,20.667C14.188,22.855 17.156,24.084 20.25,24.084Z" fill="#06AC98"/>
<path d="M43.583,29.917C45.314,29.917 47.006,29.404 48.444,28.442C49.883,27.481 51.005,26.114 51.667,24.516C52.329,22.917 52.503,21.157 52.165,19.46C51.828,17.763 50.994,16.204 49.77,14.98C48.547,13.756 46.988,12.923 45.29,12.585C43.593,12.248 41.834,12.421 40.235,13.083C38.636,13.745 37.269,14.867 36.308,16.306C35.346,17.745 34.833,19.436 34.833,21.167C34.833,23.488 35.755,25.713 37.396,27.354C39.037,28.995 41.263,29.917 43.583,29.917Z" fill="#06AC98"/>
<path d="M55.25,50.329C56.023,50.329 56.765,50.022 57.312,49.475C57.859,48.928 58.167,48.186 58.167,47.412C58.164,44.686 57.398,42.016 55.955,39.703C54.511,37.391 52.449,35.529 50.001,34.329C47.553,33.13 44.818,32.64 42.106,32.916C39.394,33.192 36.814,34.223 34.658,35.891C31.801,33.046 28.166,31.11 24.21,30.328C20.255,29.545 16.156,29.952 12.431,31.496C8.706,33.041 5.522,35.653 3.28,39.005C1.038,42.356 -0.161,46.297 -0.167,50.329C-0.167,51.102 0.141,51.844 0.688,52.391C1.235,52.938 1.976,53.246 2.75,53.246L37.75,53.246C38.523,53.246 39.265,52.938 39.812,52.391C40.359,51.844 40.667,51.102 40.667,50.329Z" fill="#06AC98"/>
</svg>
