<svg width="38" height="38" viewBox="0 0 38 38" fill="none" xmlns="http://www.w3.org/2000/svg" xmlns:xlink="http://www.w3.org/1999/xlink">
<path d="M31.5,0.248L6.5,0.248C4.842,0.248 3.253,0.907 2.081,2.079C0.908,3.251 0.25,4.841 0.25,6.498L0.25,31.498C0.25,33.156 0.908,34.746 2.081,35.918C3.253,37.09 4.842,37.748 6.5,37.748L31.5,37.748C33.158,37.748 34.747,37.09 35.919,35.918C37.092,34.746 37.75,33.156 37.75,31.498L37.75,6.498C37.75,4.841 37.092,3.251 35.919,2.079C34.747,0.907 33.158,0.248 31.5,0.248ZM33.583,31.498C33.583,32.051 33.364,32.581 32.973,32.971C32.582,33.362 32.053,33.582 31.5,33.582L6.5,33.582C5.947,33.582 5.418,33.362 5.027,32.971C4.636,32.581 4.417,32.051 4.417,31.498L4.417,6.498C4.417,5.946 4.636,5.416 5.027,5.025C5.418,4.634 5.947,4.415 6.5,4.415L31.5,4.415C32.053,4.415 32.582,4.634 32.973,5.025C33.364,5.416 33.583,5.946 33.583,6.498L33.583,31.498Z" fill="#FF0000" fill-opacity="0.5"/>
<path d="M24.646,13.35C24.452,13.154 24.222,12.999 23.968,12.894C23.714,12.788 23.442,12.733 23.167,12.733C22.892,12.733 22.619,12.788 22.365,12.894C22.111,12.999 21.881,13.154 21.687,13.35L19,16.058L16.312,13.35C15.92,12.957 15.388,12.737 14.833,12.737C14.278,12.737 13.746,12.957 13.354,13.35C12.962,13.742 12.741,14.274 12.741,14.829C12.741,15.384 12.962,15.916 13.354,16.308L16.062,18.995L13.354,21.683C13.159,21.877 13.004,22.107 12.898,22.361C12.792,22.615 12.738,22.887 12.738,23.162C12.738,23.437 12.792,23.709 12.898,23.963C13.004,24.217 13.159,24.448 13.354,24.641C13.548,24.837 13.778,24.992 14.032,25.097C14.286,25.203 14.558,25.258 14.833,25.258C15.108,25.258 15.381,25.203 15.634,25.097C15.888,24.992 16.119,24.837 16.312,24.641L19,21.933L21.687,24.641C21.881,24.837 22.111,24.992 22.365,25.097C22.619,25.203 22.892,25.258 23.167,25.258C23.442,25.258 23.714,25.203 23.968,25.097C24.222,24.992 24.452,24.837 24.646,24.641C24.841,24.448 24.996,24.217 25.102,23.963C25.207,23.709 25.262,23.437 25.262,23.162C25.262,22.887 25.207,22.615 25.102,22.361C24.996,22.107 24.841,21.877 24.646,21.683L21.937,18.995L24.646,16.308C24.841,16.114 24.996,15.884 25.102,15.63C25.207,15.376 25.262,15.104 25.262,14.829C25.262,14.554 25.207,14.281 25.102,14.028C24.996,13.774 24.841,13.543 24.646,13.35Z" fill="#FF0000" fill-opacity="0.5"/>
</svg>
