<svg width="25" height="25" viewBox="0 0 25 25" fill="none" xmlns="http://www.w3.org/2000/svg">
<g clip-path="url(#clip0_231_537)">
<path d="M12.1688 5.04249L4.16658 11.6332V18.7465C4.16658 18.9307 4.23975 19.1073 4.36998 19.2375C4.50022 19.3678 4.67685 19.4409 4.86103 19.4409L9.72474 19.4283C9.90832 19.4274 10.0841 19.3539 10.2135 19.2237C10.343 19.0936 10.4157 18.9175 10.4157 18.7339V14.5798C10.4157 14.3956 10.4889 14.219 10.6191 14.0888C10.7493 13.9585 10.926 13.8854 11.1102 13.8854H13.8879C14.0721 13.8854 14.2487 13.9585 14.379 14.0888C14.5092 14.219 14.5824 14.3956 14.5824 14.5798V18.7309C14.5821 18.8222 14.5998 18.9128 14.6346 18.9973C14.6694 19.0818 14.7205 19.1586 14.785 19.2233C14.8495 19.288 14.9262 19.3394 15.0106 19.3744C15.095 19.4094 15.1854 19.4275 15.2768 19.4275L20.1388 19.4409C20.323 19.4409 20.4996 19.3678 20.6299 19.2375C20.7601 19.1073 20.8332 18.9307 20.8332 18.7465V11.6284L12.8328 5.04249C12.7388 4.96668 12.6216 4.92534 12.5008 4.92534C12.38 4.92534 12.2628 4.96668 12.1688 5.04249ZM24.8089 9.52209L21.1805 6.53121V0.519491C21.1805 0.381357 21.1256 0.248881 21.0279 0.151206C20.9302 0.0535307 20.7978 -0.00134277 20.6596 -0.00134277H18.2291C18.0909 -0.00134277 17.9585 0.0535307 17.8608 0.151206C17.7631 0.248881 17.7082 0.381357 17.7082 0.519491V3.67097L13.8224 0.473918C13.4495 0.167051 12.9816 -0.000729342 12.4986 -0.000729342C12.0157 -0.000729342 11.5477 0.167051 11.1748 0.473918L0.188286 9.52209C0.135546 9.56569 0.0919125 9.61924 0.0598778 9.6797C0.027843 9.74016 0.00803527 9.80634 0.00158622 9.87446C-0.00486283 9.94258 0.00217325 10.0113 0.0222924 10.0767C0.0424116 10.1421 0.0752195 10.2029 0.118842 10.2556L1.22561 11.6011C1.26912 11.654 1.32262 11.6978 1.38308 11.73C1.44353 11.7622 1.50974 11.7821 1.57791 11.7887C1.64608 11.7953 1.71488 11.7883 1.78037 11.7683C1.84586 11.7482 1.90675 11.7154 1.95955 11.6718L12.1688 3.26298C12.2628 3.18717 12.38 3.14582 12.5008 3.14582C12.6216 3.14582 12.7388 3.18717 12.8328 3.26298L23.0425 11.6718C23.0952 11.7155 23.156 11.7483 23.2214 11.7684C23.2868 11.7885 23.3555 11.7955 23.4236 11.7891C23.4917 11.7826 23.5579 11.7628 23.6184 11.7308C23.6788 11.6988 23.7324 11.6551 23.776 11.6024L24.8827 10.2569C24.9263 10.2039 24.959 10.1428 24.9789 10.0771C24.9987 10.0114 25.0054 9.94244 24.9986 9.87416C24.9917 9.80588 24.9714 9.73962 24.9389 9.6792C24.9064 9.61878 24.8622 9.56539 24.8089 9.52209Z" fill="black"/>
</g>
<defs>
<clipPath id="clip0_231_537">
<rect width="25" height="25" fill="white"/>
</clipPath>
</defs>
</svg>
