<svg width="46" height="46" viewBox="0 0 46 46" fill="none" xmlns="http://www.w3.org/2000/svg">
<path d="M23.009 12.668C17.2949 12.668 12.686 17.277 12.686 22.991C12.686 28.7051 17.2949 33.3141 23.009 33.3141C28.7231 33.3141 33.3321 28.7051 33.3321 22.991C33.3321 17.277 28.7231 12.668 23.009 12.668ZM23.009 29.7023C19.3164 29.7023 16.2977 26.6926 16.2977 22.991C16.2977 19.2895 19.3074 16.2797 23.009 16.2797C26.7106 16.2797 29.7203 19.2895 29.7203 22.991C29.7203 26.6926 26.7016 29.7023 23.009 29.7023ZM36.1621 12.2457C36.1621 13.5844 35.084 14.6535 33.7543 14.6535C32.4157 14.6535 31.3465 13.5754 31.3465 12.2457C31.3465 10.916 32.4246 9.83789 33.7543 9.83789C35.084 9.83789 36.1621 10.916 36.1621 12.2457ZM42.9992 14.6895C42.8465 11.4641 42.1098 8.60703 39.7469 6.25313C37.393 3.89922 34.536 3.1625 31.3106 3.00078C27.9864 2.81211 18.0227 2.81211 14.6985 3.00078C11.4821 3.15352 8.62502 3.89023 6.26213 6.24414C3.89924 8.59805 3.17151 11.4551 3.00979 14.6805C2.82112 18.0047 2.82112 27.9684 3.00979 31.2926C3.16252 34.518 3.89924 37.375 6.26213 39.7289C8.62502 42.0828 11.4731 42.8195 14.6985 42.9812C18.0227 43.1699 27.9864 43.1699 31.3106 42.9812C34.536 42.8285 37.393 42.0918 39.7469 39.7289C42.1008 37.375 42.8375 34.518 42.9992 31.2926C43.1879 27.9684 43.1879 18.0137 42.9992 14.6895ZM38.7047 34.8594C38.0039 36.6203 36.6473 37.977 34.8774 38.6867C32.227 39.7379 25.9379 39.4953 23.009 39.4953C20.0801 39.4953 13.7821 39.7289 11.1406 38.6867C9.37971 37.9859 8.02307 36.6293 7.31331 34.8594C6.26213 32.209 6.50471 25.9199 6.50471 22.991C6.50471 20.0621 6.27112 13.7641 7.31331 11.1227C8.01409 9.36172 9.37073 8.00508 11.1406 7.29531C13.791 6.24414 20.0801 6.48672 23.009 6.48672C25.9379 6.48672 32.236 6.25312 34.8774 7.29531C36.6383 7.99609 37.9949 9.35273 38.7047 11.1227C39.7559 13.773 39.5133 20.0621 39.5133 22.991C39.5133 25.9199 39.7559 32.218 38.7047 34.8594Z" fill="black"/>
</svg>
