<svg width="82" height="110" viewBox="0 0 82 110" fill="none" xmlns="http://www.w3.org/2000/svg" xmlns:xlink="http://www.w3.org/1999/xlink">
<g opacity="0.7">
<path d="M36.786,107.781C5.759,62.526 0,57.882 0,41.25C0,18.468 18.356,0 41,0C63.644,0 82,18.468 82,41.25C82,57.882 76.241,62.526 45.214,107.781C43.177,110.74 38.822,110.74 36.786,107.781ZM41,58.437C50.435,58.437 58.083,50.742 58.083,41.25C58.083,31.758 50.435,24.062 41,24.062C31.565,24.062 23.917,31.758 23.917,41.25C23.917,50.742 31.565,58.437 41,58.437Z" fill="#BE9B7B"/>
</g>
</svg>
