<svg width="30" height="30" viewBox="0 0 30 30" fill="none" xmlns="http://www.w3.org/2000/svg" xmlns:xlink="http://www.w3.org/1999/xlink">
<path d="M28.464,10.049L20.271,8.801L16.61,1.044C16.281,0.35 15.639,0 14.997,0C14.359,0 13.722,0.346 13.392,1.044L9.729,8.8L1.537,10.048C0.067,10.27 -0.521,12.162 0.544,13.246L6.47,19.281L5.068,27.806C4.868,29.023 5.797,30 6.837,30C7.113,30 7.397,29.931 7.669,29.78L14.998,25.756L22.327,29.781C22.599,29.931 22.882,29.999 23.157,29.999C24.198,29.999 25.128,29.026 24.929,27.807L23.528,19.283L29.456,13.249C30.522,12.165 29.933,10.272 28.464,10.049ZM21.65,17.268L20.636,18.301L20.875,19.758L21.968,26.406L16.252,23.266L14.999,22.578L15.001,3.993L17.857,10.045L18.483,11.371L19.882,11.584L26.276,12.558L21.65,17.268Z" fill="#FFF500"/>
</svg>
