<svg width="50" height="46" viewBox="0 0 50 46" fill="none" xmlns="http://www.w3.org/2000/svg" xmlns:xlink="http://www.w3.org/1999/xlink">
<path d="M13.889,38.889C11.667,38.889 9.444,36.944 8.333,36.111C2.778,32.222 1.111,30.833 0,30L0,41.667C0,43.201 1.244,44.444 2.778,44.444L25,44.444C26.534,44.444 27.778,43.201 27.778,41.667L27.778,30C26.667,30.833 25,32.222 19.444,36.111C18.333,36.944 16.111,38.889 13.889,38.889ZM25,22.222L2.778,22.222C1.244,22.222 0,23.466 0,25L0,26.389C2.222,28.056 1.944,28.056 10,33.889C10.833,34.444 12.5,36.111 13.889,36.111C15.278,36.111 16.944,34.444 17.778,34.167C25.833,28.333 25.556,28.333 27.778,26.667L27.778,25C27.778,23.466 26.534,22.222 25,22.222ZM47.222,13.889L19.444,13.889C17.911,13.889 16.667,15.133 16.667,16.667L16.667,19.444L25,19.444C27.883,19.444 30.26,21.651 30.53,24.464L30.556,24.444L30.556,36.111L47.222,36.111C48.756,36.111 50,34.867 50,33.333L50,16.667C50,15.133 48.756,13.889 47.222,13.889ZM44.444,25L38.889,25L38.889,19.444L44.444,19.444L44.444,25ZM13.889,16.667C13.889,13.603 16.381,11.111 19.444,11.111L38.889,11.111L38.889,2.778C38.889,1.244 37.645,0 36.111,0L8.333,0C6.799,0 5.556,1.244 5.556,2.778L5.556,19.444L13.889,19.444L13.889,16.667Z" fill="#000000"/>
</svg>
