<svg width="38" height="50" viewBox="0 0 38 50" fill="none" xmlns="http://www.w3.org/2000/svg" xmlns:xlink="http://www.w3.org/1999/xlink">
<path d="M16.823,48.991C2.634,28.421 0,26.31 0,18.75C0,8.395 8.395,0 18.75,0C29.105,0 37.5,8.395 37.5,18.75C37.5,26.31 34.866,28.421 20.677,48.991C19.746,50.336 17.754,50.336 16.823,48.991ZM18.75,26.562C23.065,26.562 26.562,23.065 26.562,18.75C26.562,14.435 23.065,10.938 18.75,10.938C14.435,10.938 10.938,14.435 10.938,18.75C10.938,23.065 14.435,26.562 18.75,26.562Z" fill="#854442"/>
</svg>
