<svg width="44" height="44" viewBox="0 0 44 44" fill="none" xmlns="http://www.w3.org/2000/svg" xmlns:xlink="http://www.w3.org/1999/xlink">
<path d="M24.272,39.467L22.104,41.635C21.186,42.553 19.701,42.553 18.793,41.635L-0.191,22.66C-1.109,21.742 -1.109,20.258 -0.191,19.35L18.793,0.365C19.711,-0.553 21.195,-0.553 22.104,0.365L24.272,2.533C25.199,3.461 25.18,4.975 24.233,5.883L12.465,17.094L40.531,17.094C41.83,17.094 42.875,18.139 42.875,19.437L42.875,22.563C42.875,23.861 41.83,24.906 40.531,24.906L12.465,24.906L24.233,36.117C25.19,37.025 25.209,38.539 24.272,39.467Z" fill="#4B3832"/>
</svg>
