<svg width="44" height="44" viewBox="0 0 44 44" fill="none" xmlns="http://www.w3.org/2000/svg" xmlns:xlink="http://www.w3.org/1999/xlink">
<path d="M42.383,38.797L32.827,29.241C35.127,26.179 36.369,22.451 36.365,18.62C36.365,8.835 28.405,0.875 18.62,0.875C8.835,0.875 0.875,8.835 0.875,18.62C0.875,28.405 8.835,36.365 18.62,36.365C22.451,36.369 26.179,35.127 29.241,32.827L38.797,42.383C39.281,42.815 39.912,43.046 40.561,43.028C41.209,43.01 41.826,42.744 42.285,42.285C42.744,41.826 43.01,41.209 43.028,40.561C43.046,39.912 42.815,39.281 42.383,38.797ZM5.945,18.62C5.945,16.113 6.688,13.663 8.081,11.578C9.474,9.494 11.453,7.869 13.769,6.91C16.086,5.95 18.634,5.699 21.093,6.189C23.551,6.678 25.81,7.885 27.583,9.657C29.355,11.43 30.562,13.689 31.051,16.147C31.541,18.606 31.29,21.154 30.33,23.471C29.371,25.787 27.746,27.766 25.662,29.159C23.577,30.552 21.127,31.295 18.62,31.295C15.26,31.291 12.038,29.954 9.662,27.578C7.286,25.202 5.949,21.98 5.945,18.62Z" fill="#9A9A9A"/>
</svg>
