<svg width="58" height="50" viewBox="0 0 58 50" fill="none" xmlns="http://www.w3.org/2000/svg" xmlns:xlink="http://www.w3.org/1999/xlink">
<path d="M2.774,6.26C8.718,-2.08 21.108,-2.088 27.066,6.244L27.996,7.544L28.83,6.358C34.74,-2.032 47.15,-2.114 53.17,6.196C55.204,9.003 56.199,12.43 55.987,15.89C55.775,19.35 54.368,22.629 52.006,25.166L29.47,49.362C29.283,49.563 29.056,49.723 28.804,49.833C28.552,49.943 28.28,49.999 28.006,49.999C27.731,49.999 27.459,49.943 27.207,49.833C26.955,49.723 26.729,49.563 26.542,49.362L3.99,25.08C1.651,22.563 0.253,19.315 0.031,15.887C-0.19,12.458 0.778,9.057 2.774,6.26ZM23.814,8.57C19.452,2.47 10.382,2.478 6.03,8.584C4.57,10.632 3.861,13.12 4.023,15.63C4.186,18.139 5.21,20.516 6.922,22.358L28.01,45.06L49.078,22.44C50.809,20.581 51.84,18.178 51.996,15.643C52.152,13.108 51.422,10.597 49.932,8.54C45.522,2.452 36.43,2.514 32.1,8.66L29.642,12.148C29.458,12.409 29.214,12.622 28.931,12.769C28.648,12.916 28.334,12.994 28.015,12.995C27.696,12.996 27.381,12.921 27.097,12.776C26.813,12.631 26.568,12.419 26.382,12.16L23.814,8.57Z" fill="#854442"/>
</svg>
