<svg width="64" height="64" viewBox="0 0 64 64" fill="none" xmlns="http://www.w3.org/2000/svg" xmlns:xlink="http://www.w3.org/1999/xlink">
<path d="M0,28.444L0,0L28.444,0L28.444,28.444L0,28.444ZM7.111,21.333L21.333,21.333L21.333,7.111L7.111,7.111L7.111,21.333ZM0,64L0,35.556L28.444,35.556L28.444,64L0,64ZM7.111,56.889L21.333,56.889L21.333,42.667L7.111,42.667L7.111,56.889ZM35.556,28.444L35.556,0L64,0L64,28.444L35.556,28.444ZM42.667,21.333L56.889,21.333L56.889,7.111L42.667,7.111L42.667,21.333ZM56.889,64L56.889,56.889L64,56.889L64,64L56.889,64ZM35.556,42.667L35.556,35.556L42.667,35.556L42.667,42.667L35.556,42.667ZM42.667,49.778L42.667,42.667L49.778,42.667L49.778,49.778L42.667,49.778ZM35.556,56.889L35.556,49.778L42.667,49.778L42.667,56.889L35.556,56.889ZM42.667,64L42.667,56.889L49.778,56.889L49.778,64L42.667,64ZM49.778,56.889L49.778,49.778L56.889,49.778L56.889,56.889L49.778,56.889ZM49.778,42.667L49.778,35.556L56.889,35.556L56.889,42.667L49.778,42.667ZM56.889,49.778L56.889,42.667L64,42.667L64,49.778L56.889,49.778Z" fill="#4B3832"/>
</svg>
