<svg width="86" height="66" viewBox="0 0 86 66" fill="none" xmlns="http://www.w3.org/2000/svg" xmlns:xlink="http://www.w3.org/1999/xlink">
<path d="M40.887,17.428L14,39.375L14,63.062C14,63.676 14.246,64.264 14.683,64.698C15.121,65.131 15.714,65.375 16.333,65.375L32.675,65.333C33.292,65.33 33.883,65.085 34.318,64.652C34.753,64.218 34.997,63.632 34.997,63.021L34.997,49.187C34.997,48.574 35.243,47.986 35.68,47.552C36.118,47.119 36.712,46.875 37.33,46.875L46.664,46.875C47.283,46.875 47.876,47.119 48.314,47.552C48.751,47.986 48.997,48.574 48.997,49.187L48.997,63.01C48.996,63.315 49.056,63.616 49.173,63.898C49.289,64.179 49.461,64.435 49.678,64.65C49.895,64.866 50.152,65.037 50.436,65.153C50.719,65.27 51.023,65.33 51.33,65.33L67.667,65.375C68.285,65.375 68.879,65.131 69.317,64.698C69.754,64.264 70,63.676 70,63.062L70,39.359L43.119,17.428C42.802,17.176 42.409,17.038 42.003,17.038C41.597,17.038 41.203,17.176 40.887,17.428ZM83.358,32.345L71.167,22.386L71.167,2.367C71.167,1.907 70.982,1.465 70.654,1.14C70.326,0.815 69.881,0.632 69.417,0.632L61.25,0.632C60.786,0.632 60.341,0.815 60.013,1.14C59.684,1.465 59.5,1.907 59.5,2.367L59.5,12.861L46.444,2.215C45.191,1.193 43.618,0.634 41.996,0.634C40.373,0.634 38.801,1.193 37.548,2.215L0.633,32.345C0.456,32.49 0.309,32.669 0.201,32.87C0.094,33.071 0.027,33.292 0.006,33.519C-0.016,33.745 0.008,33.974 0.075,34.192C0.143,34.41 0.253,34.612 0.4,34.788L4.118,39.268C4.265,39.444 4.444,39.59 4.647,39.697C4.851,39.805 5.073,39.871 5.302,39.893C5.531,39.915 5.762,39.892 5.982,39.825C6.202,39.758 6.407,39.649 6.584,39.504L40.887,11.502C41.203,11.25 41.597,11.112 42.003,11.112C42.409,11.112 42.802,11.25 43.119,11.502L77.423,39.504C77.6,39.649 77.804,39.758 78.024,39.825C78.244,39.892 78.475,39.916 78.704,39.894C78.932,39.873 79.155,39.807 79.358,39.7C79.561,39.594 79.741,39.448 79.887,39.273L83.606,34.792C83.753,34.616 83.862,34.412 83.929,34.193C83.996,33.975 84.019,33.745 83.996,33.518C83.972,33.29 83.904,33.07 83.795,32.868C83.686,32.667 83.537,32.489 83.358,32.345Z" fill="#4B3832"/>
</svg>
