<svg width="96" height="142" viewBox="0 0 96 142" fill="none" xmlns="http://www.w3.org/2000/svg" xmlns:xlink="http://www.w3.org/1999/xlink">
<path d="M17.842,0.004L10.667,16.578L0,16.578L0,31.483L4.082,31.483L8.261,57.996L1.733,57.996L10.366,106.687L15.901,106.621L21.467,142L74.165,142L74.533,139.644L79.727,106.616L84.992,106.683L93.602,57.992L87.367,57.992L91.52,31.479L96,31.479L96,16.574L84.668,16.574L77.467,0L17.842,0.004ZM20.962,4.766L74.395,4.766L78.938,15.304L16.384,15.304L20.962,4.766ZM4.715,21.317L91.245,21.317L91.245,26.766L4.715,26.766L4.715,21.317ZM7.392,62.731L87.974,62.731L81.025,101.882L47.628,101.531L14.341,101.882L7.392,62.731Z" fill="#4B3832"/>
</svg>
