<svg width="44" height="50" viewBox="0 0 44 50" fill="none" xmlns="http://www.w3.org/2000/svg" xmlns:xlink="http://www.w3.org/1999/xlink">
<path d="M0,45.312C0,47.9 2.1,50 4.688,50L39.062,50C41.65,50 43.75,47.9 43.75,45.312L43.75,18.75L0,18.75L0,45.312ZM31.25,26.172C31.25,25.527 31.777,25 32.422,25L36.328,25C36.973,25 37.5,25.527 37.5,26.172L37.5,30.078C37.5,30.723 36.973,31.25 36.328,31.25L32.422,31.25C31.777,31.25 31.25,30.723 31.25,30.078L31.25,26.172ZM31.25,38.672C31.25,38.027 31.777,37.5 32.422,37.5L36.328,37.5C36.973,37.5 37.5,38.027 37.5,38.672L37.5,42.578C37.5,43.223 36.973,43.75 36.328,43.75L32.422,43.75C31.777,43.75 31.25,43.223 31.25,42.578L31.25,38.672ZM18.75,26.172C18.75,25.527 19.277,25 19.922,25L23.828,25C24.473,25 25,25.527 25,26.172L25,30.078C25,30.723 24.473,31.25 23.828,31.25L19.922,31.25C19.277,31.25 18.75,30.723 18.75,30.078L18.75,26.172ZM18.75,38.672C18.75,38.027 19.277,37.5 19.922,37.5L23.828,37.5C24.473,37.5 25,38.027 25,38.672L25,42.578C25,43.223 24.473,43.75 23.828,43.75L19.922,43.75C19.277,43.75 18.75,43.223 18.75,42.578L18.75,38.672ZM6.25,26.172C6.25,25.527 6.777,25 7.422,25L11.328,25C11.973,25 12.5,25.527 12.5,26.172L12.5,30.078C12.5,30.723 11.973,31.25 11.328,31.25L7.422,31.25C6.777,31.25 6.25,30.723 6.25,30.078L6.25,26.172ZM6.25,38.672C6.25,38.027 6.777,37.5 7.422,37.5L11.328,37.5C11.973,37.5 12.5,38.027 12.5,38.672L12.5,42.578C12.5,43.223 11.973,43.75 11.328,43.75L7.422,43.75C6.777,43.75 6.25,43.223 6.25,42.578L6.25,38.672ZM39.062,6.25L34.375,6.25L34.375,1.563C34.375,0.703 33.672,0 32.812,0L29.688,0C28.828,0 28.125,0.703 28.125,1.563L28.125,6.25L15.625,6.25L15.625,1.563C15.625,0.703 14.922,0 14.063,0L10.938,0C10.078,0 9.375,0.703 9.375,1.563L9.375,6.25L4.688,6.25C2.1,6.25 0,8.35 0,10.938L0,15.625L43.75,15.625L43.75,10.938C43.75,8.35 41.65,6.25 39.062,6.25Z" fill="#000000"/>
</svg>
