<svg width="44" height="44" viewBox="0 0 44 44" fill="none" xmlns="http://www.w3.org/2000/svg" xmlns:xlink="http://www.w3.org/1999/xlink">
<path d="M0,18.75L18.75,18.75L18.75,0L0,0L0,18.75ZM6.25,6.25L12.5,6.25L12.5,12.5L6.25,12.5L6.25,6.25ZM25,0L25,18.75L43.75,18.75L43.75,0L25,0ZM37.5,12.5L31.25,12.5L31.25,6.25L37.5,6.25L37.5,12.5ZM0,43.75L18.75,43.75L18.75,25L0,25L0,43.75ZM6.25,31.25L12.5,31.25L12.5,37.5L6.25,37.5L6.25,31.25ZM40.625,25L43.75,25L43.75,37.5L34.375,37.5L34.375,34.375L31.25,34.375L31.25,43.75L25,43.75L25,25L34.375,25L34.375,28.125L40.625,28.125L40.625,25ZM40.625,40.625L43.75,40.625L43.75,43.75L40.625,43.75L40.625,40.625ZM34.375,40.625L37.5,40.625L37.5,43.75L34.375,43.75L34.375,40.625Z" fill="#000000"/>
</svg>
