<svg width="50" height="40" viewBox="0 0 50 40" fill="none" xmlns="http://www.w3.org/2000/svg" xmlns:xlink="http://www.w3.org/1999/xlink">
<path d="M47.5,-1L12.5,-1C11.837,-1 11.201,-0.737 10.732,-0.268C10.263,0.201 10,0.837 10,1.5L10,9L22.5,9L22.5,4L37.5,4L37.5,29L47.5,29C48.163,29 48.799,28.737 49.268,28.268C49.737,27.799 50,27.163 50,26.5L50,1.5C50,0.837 49.737,0.201 49.268,-0.268C48.799,-0.737 48.163,-1 47.5,-1ZM18.125,7.047C18.125,7.233 18.051,7.412 17.919,7.544C17.787,7.676 17.608,7.75 17.422,7.75L15.078,7.75C14.892,7.75 14.713,7.676 14.581,7.544C14.449,7.412 14.375,7.233 14.375,7.047L14.375,4.703C14.375,4.517 14.449,4.338 14.581,4.206C14.713,4.074 14.892,4 15.078,4L17.422,4C17.608,4 17.787,4.074 17.919,4.206C18.051,4.338 18.125,4.517 18.125,4.703L18.125,7.047ZM45.625,23.297C45.625,23.483 45.551,23.662 45.419,23.794C45.287,23.926 45.108,24 44.922,24L42.578,24C42.392,24 42.213,23.926 42.081,23.794C41.949,23.662 41.875,23.483 41.875,23.297L41.875,20.953C41.875,20.767 41.949,20.588 42.081,20.456C42.213,20.324 42.392,20.25 42.578,20.25L44.922,20.25C45.108,20.25 45.287,20.324 45.419,20.456C45.551,20.588 45.625,20.767 45.625,20.953L45.625,23.297ZM45.625,15.172C45.625,15.358 45.551,15.537 45.419,15.669C45.287,15.801 45.108,15.875 44.922,15.875L42.578,15.875C42.392,15.875 42.213,15.801 42.081,15.669C41.949,15.537 41.875,15.358 41.875,15.172L41.875,12.828C41.875,12.642 41.949,12.463 42.081,12.331C42.213,12.199 42.392,12.125 42.578,12.125L44.922,12.125C45.108,12.125 45.287,12.199 45.419,12.331C45.551,12.463 45.625,12.642 45.625,12.828L45.625,15.172ZM45.625,7.047C45.625,7.233 45.551,7.412 45.419,7.544C45.287,7.676 45.108,7.75 44.922,7.75L42.578,7.75C42.392,7.75 42.213,7.676 42.081,7.544C41.949,7.412 41.875,7.233 41.875,7.047L41.875,4.703C41.875,4.517 41.949,4.338 42.081,4.206C42.213,4.074 42.392,4 42.578,4L44.922,4C45.108,4 45.287,4.074 45.419,4.206C45.551,4.338 45.625,4.517 45.625,4.703L45.625,7.047ZM32.5,11.5L2.5,11.5C1.837,11.5 1.201,11.763 0.732,12.232C0.263,12.701 0,13.337 0,14L0,36.5C0,37.163 0.263,37.799 0.732,38.268C1.201,38.737 1.837,39 2.5,39L32.5,39C33.163,39 33.799,38.737 34.268,38.268C34.737,37.799 35,37.163 35,36.5L35,14C35,13.337 34.737,12.701 34.268,12.232C33.799,11.763 33.163,11.5 32.5,11.5ZM7.5,16.5C7.994,16.5 8.478,16.647 8.889,16.921C9.3,17.196 9.62,17.586 9.81,18.043C9.999,18.5 10.048,19.003 9.952,19.488C9.855,19.973 9.617,20.418 9.268,20.768C8.918,21.117 8.473,21.356 7.988,21.452C7.503,21.548 7,21.499 6.543,21.31C6.086,21.12 5.696,20.8 5.421,20.389C5.147,19.978 5,19.494 5,19C5,18.337 5.263,17.701 5.732,17.232C6.201,16.763 6.837,16.5 7.5,16.5ZM30,34L5,34L5,31.5L10,26.5L12.5,29L22.5,19L30,26.5L30,34Z" fill="#000000"/>
</svg>
