<svg width="62" height="66" viewBox="0 0 62 66" fill="none" xmlns="http://www.w3.org/2000/svg" xmlns:xlink="http://www.w3.org/1999/xlink">
<path d="M7.083,24.75C7.083,18.407 9.603,12.324 14.088,7.838C18.574,3.353 24.657,0.833 31,0.833C37.343,0.833 43.426,3.353 47.912,7.838C52.397,12.324 54.917,18.407 54.917,24.75L54.917,37.61L61.142,50.061C61.428,50.634 61.564,51.271 61.535,51.911C61.506,52.551 61.314,53.173 60.977,53.718C60.64,54.263 60.17,54.713 59.61,55.025C59.051,55.336 58.42,55.5 57.78,55.5L44.236,55.5C43.476,58.432 41.764,61.029 39.368,62.883C36.973,64.737 34.029,65.743 31,65.743C27.971,65.743 25.027,64.737 22.632,62.883C20.236,61.029 18.524,58.432 17.764,55.5L4.22,55.5C3.579,55.5 2.949,55.336 2.39,55.025C1.83,54.713 1.36,54.263 1.023,53.718C0.686,53.173 0.494,52.551 0.465,51.911C0.436,51.271 0.572,50.634 0.858,50.061L7.083,37.61L7.083,24.75ZM25.082,55.5C25.682,56.539 26.545,57.401 27.583,58.001C28.622,58.601 29.8,58.916 31,58.916C32.199,58.916 33.378,58.601 34.416,58.001C35.455,57.401 36.318,56.539 36.918,55.5L25.082,55.5ZM31,7.667C26.469,7.667 22.124,9.467 18.92,12.67C15.717,15.874 13.917,20.219 13.917,24.75L13.917,37.61C13.917,38.671 13.67,39.716 13.196,40.665L9.198,48.667L52.805,48.667L48.808,40.665C48.332,39.717 48.084,38.671 48.083,37.61L48.083,24.75C48.083,20.219 46.283,15.874 43.08,12.67C39.876,9.467 35.531,7.667 31,7.667Z" clip-rule="evenodd" fill-rule="evenodd" fill="#4B3832"/>
</svg>
