<svg width="28" height="28" viewBox="0 0 28 28" fill="none" xmlns="http://www.w3.org/2000/svg" xmlns:xlink="http://www.w3.org/1999/xlink">
<path d="M26.6,1.42C26.415,1.235 26.195,1.087 25.953,0.987C25.711,0.887 25.452,0.835 25.19,0.835C24.928,0.835 24.669,0.887 24.427,0.987C24.185,1.087 23.965,1.235 23.78,1.42L14,11.18L4.22,1.4C4.035,1.215 3.815,1.068 3.573,0.968C3.331,0.867 3.072,0.816 2.81,0.816C2.548,0.816 2.289,0.867 2.047,0.968C1.805,1.068 1.585,1.215 1.4,1.4C1.215,1.585 1.068,1.805 0.968,2.047C0.867,2.289 0.816,2.548 0.816,2.81C0.816,3.072 0.867,3.331 0.968,3.573C1.068,3.815 1.215,4.035 1.4,4.22L11.18,14L1.4,23.78C1.215,23.965 1.068,24.185 0.968,24.427C0.867,24.669 0.816,24.928 0.816,25.19C0.816,25.452 0.867,25.711 0.968,25.953C1.068,26.195 1.215,26.415 1.4,26.6C1.585,26.785 1.805,26.932 2.047,27.032C2.289,27.133 2.548,27.184 2.81,27.184C3.072,27.184 3.331,27.133 3.573,27.032C3.815,26.932 4.035,26.785 4.22,26.6L14,16.82L23.78,26.6C23.965,26.785 24.185,26.932 24.427,27.032C24.669,27.133 24.928,27.184 25.19,27.184C25.452,27.184 25.711,27.133 25.953,27.032C26.195,26.932 26.415,26.785 26.6,26.6C26.785,26.415 26.932,26.195 27.032,25.953C27.133,25.711 27.184,25.452 27.184,25.19C27.184,24.928 27.133,24.669 27.032,24.427C26.932,24.185 26.785,23.965 26.6,23.78L16.82,14L26.6,4.22C27.36,3.46 27.36,2.18 26.6,1.42Z" fill="#4B3832"/>
</svg>
