<svg width="54" height="66" viewBox="0 0 54 66" fill="none" xmlns="http://www.w3.org/2000/svg" xmlns:xlink="http://www.w3.org/1999/xlink">
<path d="M53.372,20.91L36.058,20.91L51.628,1.032C51.95,0.611 51.659,0 51.133,0L20.992,0C20.772,0 20.56,0.119 20.45,0.318L0.087,35.855C-0.157,36.276 0.142,36.808 0.629,36.808L14.335,36.808L7.309,65.207C7.16,65.826 7.899,66.263 8.355,65.818L53.805,21.998C54.213,21.609 53.938,20.91 53.372,20.91ZM16.45,50.547L21.189,31.408L8.818,31.408L23.719,5.408L41.371,5.408L25,26.318L41.584,26.318L16.45,50.547Z" fill="#4B3832"/>
</svg>
