<svg width="82" height="82" viewBox="0 0 82 82" fill="none" xmlns="http://www.w3.org/2000/svg" xmlns:xlink="http://www.w3.org/1999/xlink">
<path d="M40.018,19.336C28.59,19.336 19.372,28.554 19.372,39.982C19.372,51.41 28.59,60.628 40.018,60.628C51.446,60.628 60.664,51.41 60.664,39.982C60.664,28.554 51.446,19.336 40.018,19.336ZM40.018,53.405C32.633,53.405 26.595,47.385 26.595,39.982C26.595,32.579 32.615,26.559 40.018,26.559C47.421,26.559 53.441,32.579 53.441,39.982C53.441,47.385 47.403,53.405 40.018,53.405ZM66.324,18.491C66.324,21.169 64.168,23.307 61.509,23.307C58.831,23.307 56.693,21.151 56.693,18.491C56.693,15.832 58.849,13.676 61.509,13.676C64.168,13.676 66.324,15.832 66.324,18.491ZM79.999,23.379C79.693,16.928 78.22,11.214 73.494,6.506C68.786,1.798 63.072,0.325 56.621,0.002C49.973,-0.376 30.045,-0.376 23.397,0.002C16.964,0.307 11.25,1.78 6.524,6.488C1.798,11.196 0.343,16.91 0.02,23.361C-0.358,30.009 -0.358,49.937 0.02,56.585C0.325,63.036 1.798,68.75 6.524,73.458C11.25,78.166 16.946,79.639 23.397,79.963C30.045,80.34 49.973,80.34 56.621,79.963C63.072,79.657 68.786,78.184 73.494,73.458C78.202,68.75 79.675,63.036 79.999,56.585C80.376,49.937 80.376,30.027 79.999,23.379ZM71.409,63.719C70.008,67.241 67.295,69.954 63.755,71.373C58.454,73.476 45.876,72.991 40.018,72.991C34.16,72.991 21.564,73.458 16.281,71.373C12.759,69.972 10.046,67.259 8.627,63.719C6.524,58.418 7.009,45.84 7.009,39.982C7.009,34.124 6.542,21.528 8.627,16.245C10.028,12.723 12.741,10.01 16.281,8.591C21.582,6.488 34.16,6.973 40.018,6.973C45.876,6.973 58.472,6.506 63.755,8.591C67.277,9.992 69.99,12.705 71.409,16.245C73.512,21.546 73.027,34.124 73.027,39.982C73.027,45.84 73.512,58.436 71.409,63.719Z" fill="#000000"/>
</svg>
