<svg width="50" height="26" viewBox="0 0 50 26" fill="none" xmlns="http://www.w3.org/2000/svg" xmlns:xlink="http://www.w3.org/1999/xlink">
<path d="M50,0.813L50,25.184C50,25.631 49.473,25.997 48.828,25.997L44.922,25.997C44.277,25.997 43.75,25.631 43.75,25.184L43.75,14.901L27.002,25.496C24.99,26.66 21.875,25.685 21.875,23.83L21.875,14.901L5.127,25.496C3.115,26.66 0,25.685 0,23.83L0,2.167C0,0.312 3.115,-0.656 5.127,0.501L21.875,11.022L21.875,2.167C21.875,0.312 24.99,-0.656 27.002,0.501L43.75,11.022L43.75,0.813C43.75,0.366 44.277,0 44.922,0L48.828,0C49.473,0 50,0.366 50,0.813Z" fill="#000000"/>
</svg>
