<svg width="64" height="64" viewBox="0 0 64 64" fill="none" xmlns="http://www.w3.org/2000/svg" xmlns:xlink="http://www.w3.org/1999/xlink">
<path d="M53,4C53,3.072 52.631,2.182 51.975,1.525C51.319,0.869 50.428,0.5 49.5,0.5C48.572,0.5 47.681,0.869 47.025,1.525C46.369,2.182 46,3.072 46,4L46,7.5L4,7.5C3.072,7.5 2.182,7.869 1.525,8.525C0.869,9.181 0.5,10.072 0.5,11C0.5,11.928 0.869,12.819 1.525,13.475C2.182,14.131 3.072,14.5 4,14.5L46,14.5L46,18C46,18.928 46.369,19.819 47.025,20.475C47.681,21.131 48.572,21.5 49.5,21.5C50.428,21.5 51.319,21.131 51.975,20.475C52.631,19.819 53,18.928 53,18L53,14.5L60,14.5C60.928,14.5 61.819,14.131 62.475,13.475C63.131,12.819 63.5,11.928 63.5,11C63.5,10.072 63.131,9.181 62.475,8.525C61.819,7.869 60.928,7.5 60,7.5L53,7.5L53,4ZM4,28.5C3.072,28.5 2.182,28.869 1.525,29.525C0.869,30.182 0.5,31.072 0.5,32C0.5,32.928 0.869,33.818 1.525,34.475C2.182,35.131 3.072,35.5 4,35.5L11,35.5L11,39C11,39.928 11.369,40.818 12.025,41.475C12.682,42.131 13.572,42.5 14.5,42.5C15.428,42.5 16.318,42.131 16.975,41.475C17.631,40.818 18,39.928 18,39L18,35.5L60,35.5C60.928,35.5 61.819,35.131 62.475,34.475C63.131,33.818 63.5,32.928 63.5,32C63.5,31.072 63.131,30.182 62.475,29.525C61.819,28.869 60.928,28.5 60,28.5L18,28.5L18,25C18,24.072 17.631,23.182 16.975,22.525C16.318,21.869 15.428,21.5 14.5,21.5C13.572,21.5 12.682,21.869 12.025,22.525C11.369,23.182 11,24.072 11,25L11,28.5L4,28.5ZM0.5,53C0.5,52.072 0.869,51.181 1.525,50.525C2.182,49.869 3.072,49.5 4,49.5L46,49.5L46,46C46,45.072 46.369,44.182 47.025,43.525C47.681,42.869 48.572,42.5 49.5,42.5C50.428,42.5 51.319,42.869 51.975,43.525C52.631,44.182 53,45.072 53,46L53,49.5L60,49.5C60.928,49.5 61.819,49.869 62.475,50.525C63.131,51.181 63.5,52.072 63.5,53C63.5,53.928 63.131,54.819 62.475,55.475C61.819,56.131 60.928,56.5 60,56.5L53,56.5L53,60C53,60.928 52.631,61.819 51.975,62.475C51.319,63.131 50.428,63.5 49.5,63.5C48.572,63.5 47.681,63.131 47.025,62.475C46.369,61.819 46,60.928 46,60L46,56.5L4,56.5C3.072,56.5 2.182,56.131 1.525,55.475C0.869,54.819 0.5,53.928 0.5,53Z" clip-rule="evenodd" fill-rule="evenodd" fill="#4B3832"/>
</svg>
