<svg width="52" height="46" viewBox="0 0 52 46" fill="none" xmlns="http://www.w3.org/2000/svg" xmlns:xlink="http://www.w3.org/1999/xlink">
<path d="M19.005,29.2C22.033,26.172 22.842,24.018 23.697,21.735C24.618,19.279 25.571,16.74 29.024,13.285C32.477,9.83 35.018,8.878 37.474,7.957C39.547,7.176 41.523,6.422 44.14,4.019L40.87,0.773C40.413,0.323 39.811,0.052 39.172,0.007C38.532,-0.038 37.898,0.146 37.382,0.527C36.198,1.404 35.199,1.777 33.823,2.29C21.442,6.902 18.166,16.605 17.419,18.585C14.836,25.428 9.645,26.804 8.849,27.1C6.691,27.903 4.099,28.869 0.944,31.471C-0.259,32.465 -0.314,34.288 0.789,35.383L3.893,38.465C6.946,35.635 9.29,34.735 11.546,33.888C13.827,33.034 15.979,32.228 19.005,29.2ZM49.213,9.061L46.11,5.979C43.055,8.811 40.712,9.712 38.449,10.561C36.17,11.416 34.017,12.225 30.988,15.249C27.96,18.273 27.152,20.43 26.301,22.714C25.377,25.173 24.423,27.71 20.969,31.163C17.515,34.616 14.98,35.567 12.523,36.486C10.452,37.267 8.477,38.019 5.863,40.421L9.134,43.67C9.591,44.119 10.194,44.391 10.833,44.436C11.472,44.481 12.107,44.296 12.622,43.915C13.803,43.041 14.8,42.67 16.176,42.158C28.52,37.557 31.801,27.913 32.577,25.865C35.158,19.026 40.349,17.647 41.147,17.349C43.306,16.544 45.899,15.578 49.056,12.973C50.262,11.983 50.316,10.156 49.214,9.062L49.213,9.061Z" fill="#000000"/>
</svg>
