<svg width="50" height="40" viewBox="0 0 50 40" fill="none" xmlns="http://www.w3.org/2000/svg" xmlns:xlink="http://www.w3.org/1999/xlink">
<path d="M39.375,27.498L10.656,27.498C10.313,27.498 10.031,27.779 10.031,28.123L10.023,31.873C10.023,32.217 10.305,32.498 10.648,32.498L39.375,32.498C39.719,32.498 40,32.217 40,31.873L40,28.123C40,27.779 39.719,27.498 39.375,27.498ZM39.375,34.998L10.633,34.998C10.289,34.998 10.008,35.279 10.008,35.623L10,39.373C10,39.717 10.281,39.998 10.625,39.998L39.375,39.998C39.719,39.998 40,39.717 40,39.373L40,35.623C40,35.279 39.719,34.998 39.375,34.998ZM39.375,19.998L10.672,19.998C10.328,19.998 10.047,20.279 10.047,20.623L10.039,24.373C10.039,24.717 10.32,24.998 10.664,24.998L39.375,24.998C39.719,24.998 40,24.717 40,24.373L40,20.623C40,20.279 39.719,19.998 39.375,19.998ZM47.695,9.139L26.438,0.287C25.981,0.098 25.491,0 24.996,0C24.501,0 24.012,0.098 23.555,0.287L2.305,9.139C0.914,9.725 0,11.084 0,12.6L0,39.373C0,39.717 0.281,39.998 0.625,39.998L6.875,39.998C7.219,39.998 7.5,39.717 7.5,39.373L7.5,19.998C7.5,18.623 8.641,17.498 10.047,17.498L39.953,17.498C41.359,17.498 42.5,18.623 42.5,19.998L42.5,39.373C42.5,39.717 42.781,39.998 43.125,39.998L49.375,39.998C49.719,39.998 50,39.717 50,39.373L50,12.6C50,11.084 49.086,9.725 47.695,9.139Z" fill="#000000"/>
</svg>
