<svg width="44" height="44" viewBox="0 0 44 44" fill="none" xmlns="http://www.w3.org/2000/svg" xmlns:xlink="http://www.w3.org/1999/xlink">
<path d="M39.062,0L4.688,0C2.1,0 0,2.1 0,4.688L0,39.062C0,41.65 2.1,43.75 4.688,43.75L39.062,43.75C41.65,43.75 43.75,41.65 43.75,39.062L43.75,4.688C43.75,2.1 41.65,0 39.062,0ZM15.625,32.812C15.625,33.676 14.926,34.375 14.063,34.375L10.938,34.375C10.074,34.375 9.375,33.676 9.375,32.812L9.375,20.312C9.375,19.449 10.074,18.75 10.938,18.75L14.063,18.75C14.926,18.75 15.625,19.449 15.625,20.312L15.625,32.812ZM25,32.812C25,33.676 24.301,34.375 23.438,34.375L20.312,34.375C19.449,34.375 18.75,33.676 18.75,32.812L18.75,10.938C18.75,10.074 19.449,9.375 20.312,9.375L23.438,9.375C24.301,9.375 25,10.074 25,10.938L25,32.812ZM34.375,32.812C34.375,33.676 33.676,34.375 32.812,34.375L29.688,34.375C28.824,34.375 28.125,33.676 28.125,32.812L28.125,26.562C28.125,25.699 28.824,25 29.688,25L32.812,25C33.676,25 34.375,25.699 34.375,26.562L34.375,32.812Z" fill="#000000"/>
</svg>
