<svg width="52" height="36" viewBox="0 0 52 36" fill="none" xmlns="http://www.w3.org/2000/svg" xmlns:xlink="http://www.w3.org/1999/xlink">
<path d="M15.004,27.5L30.004,27.5C34.145,27.5 37.504,24.141 37.504,20L40.004,20C45.52,20 50.004,15.516 50.004,10C50.004,4.484 45.52,0 40.004,0L9.379,0C8.34,0 7.504,0.836 7.504,1.875L7.504,20C7.504,24.141 10.864,27.5 15.004,27.5ZM40.004,5C42.762,5 45.004,7.242 45.004,10C45.004,12.758 42.762,15 40.004,15L37.504,15L37.504,5L40.004,5ZM43.731,35L3.778,35C0.059,35 -0.988,30 0.965,30L46.536,30C48.489,30 47.457,35 43.731,35Z" fill="#000000"/>
</svg>
